<?xml version="1.0" standalone="no"?>
<!DOCTYPE svg PUBLIC "-//W3C//DTD SVG 20010904//EN"
 "http://www.w3.org/TR/2001/REC-SVG-20010904/DTD/svg10.dtd">
<svg version="1.0" xmlns="http://www.w3.org/2000/svg"
 width="512.000000pt" height="512.000000pt" viewBox="0 0 512.000000 512.000000"
 preserveAspectRatio="xMidYMid meet">
<metadata>
Created by potrace 1.14, written by Peter Selinger 2001-2017
</metadata>
<g transform="translate(0.000000,512.000000) scale(0.100000,-0.100000)"
fill="#000000" stroke="none">
<path d="M3410 4894 c-192 -41 -355 -196 -406 -389 -13 -46 -19 -179 -11 -215
2 -8 7 -31 11 -50 4 -19 23 -67 42 -105 137 -275 471 -374 745 -221 120 67
225 218 254 362 10 52 5 178 -9 229 -37 135 -149 279 -262 337 -113 59 -245
77 -364 52z"/>
<path d="M2589 3815 c-40 -12 -91 -30 -111 -39 -34 -14 -162 -107 -244 -175
-39 -33 -58 -48 -114 -91 -25 -19 -47 -37 -50 -40 -3 -3 -39 -32 -80 -64 -136
-107 -198 -191 -246 -331 -62 -184 -33 -391 77 -556 43 -64 104 -122 351 -334
l174 -149 0 -483 c-1 -476 -1 -483 19 -484 11 -1 105 -2 208 -3 159 -1 190 1
196 14 5 11 7 1061 2 1141 -1 8 -51 58 -113 110 -61 52 -116 99 -122 104 -6 6
-89 77 -184 159 -189 163 -216 199 -213 284 1 43 37 142 50 142 4 0 16 8 27
18 57 52 424 339 454 355 27 14 50 17 102 14 76 -5 96 -17 203 -117 49 -46
185 -173 231 -215 6 -5 60 -56 120 -111 60 -56 131 -121 158 -145 l49 -44 356
-1 c196 -1 361 1 367 3 8 3 11 70 11 214 l0 209 -284 0 -284 0 -62 58 c-34 31
-66 62 -73 67 -22 19 -239 221 -309 286 -101 96 -123 113 -196 153 -140 77
-319 96 -470 51z"/>
<path d="M906 2334 c-394 -62 -719 -336 -849 -714 -28 -81 -32 -100 -47 -205
-13 -89 -5 -290 13 -350 3 -11 8 -31 11 -45 9 -50 45 -148 76 -210 191 -378
572 -607 990 -595 101 3 225 24 295 51 11 4 26 8 33 10 7 1 55 23 106 48 306
148 530 447 582 771 3 22 8 43 10 47 5 8 5 220 0 263 -29 241 -153 487 -330
652 -235 220 -576 326 -890 277z m319 -434 c124 -31 260 -121 348 -230 54 -66
110 -191 123 -275 41 -259 -66 -509 -278 -648 -118 -77 -232 -109 -378 -103
-340 14 -608 288 -610 624 -1 96 5 138 30 213 71 210 236 363 452 418 83 22
230 22 313 1z"/>
<path d="M3978 2345 c-2 -2 -28 -5 -58 -8 -370 -39 -714 -305 -857 -662 -28
-72 -60 -191 -68 -260 -7 -59 -8 -231 -1 -262 2 -11 8 -43 12 -70 11 -75 62
-221 106 -303 276 -508 883 -707 1403 -460 302 143 521 431 590 775 11 55 14
279 4 340 -83 515 -513 897 -1026 909 -57 2 -104 2 -105 1z m216 -441 c200
-46 374 -194 452 -385 32 -78 36 -100 41 -213 6 -120 -12 -207 -65 -316 -64
-131 -216 -265 -357 -314 -71 -24 -125 -31 -240 -30 -80 1 -115 7 -173 27
-380 135 -546 552 -361 908 66 127 201 247 330 295 113 42 261 53 373 28z"/>
</g>
</svg>
