<svg version="1.0" id="Layer_1" xmlns="http://www.w3.org/2000/svg" x="0" y="0" viewBox="0 0 346 346" style="enable-background:new 0 0 346 346" xml:space="preserve"><style>.st1{stroke:#000;stroke-miterlimit:10}.st1,.st2{fill:#24376e}.st4,.st6{stroke-miterlimit:10}.st4{fill:none;stroke:#fff;stroke-width:4}.st6{stroke:#000}.st6,.st8{fill:#fff}</style><circle cx="173" cy="173" r="104" style="fill:#fff;stroke:#fff;stroke-width:4;stroke-miterlimit:10"/><path class="st1" d="M92.3 124.6c12.6 18.5 9.5 35.1 9.2 38.4l8.8 15.9L173 182l62.7-3.1 8.8-15.9c-.3-3.3-3.4-19.5 9.2-38"/><path class="st2" d="M173 91.9"/><path d="M244.5 163H235v14h-15v-14h-16v14h-15v-14h-32v14h-15v-14h-16v14h-15v-14h-9.5c-1.2 10.5-5.4 18.6-19.5 24 0 22 7 39 33 50s46 14 58 32c12-18 32-21 58-32s33-28 33-50c-14.1-5.4-18.3-13.5-19.5-24z" style="fill:#8b1821;stroke:#000;stroke-miterlimit:10"/><path class="st2" d="M173 13C84.6 13 13 84.6 13 173s71.6 160 160 160 160-71.6 160-160S261.4 13 173 13zm0 264c-57.4 0-104-46.6-104-104S115.6 69 173 69s104 46.6 104 104-46.6 104-104 104z"/><path d="M204 171.1h16v.5h-16zM176.1 171.4v.2H189v-.5h-32v.5h18.6v-.2zM235 171.6h11.5c-.1-.2-.1-.3-.2-.5H235v.5zM262.4 202.8c0-.2.1-.3.1-.5h-13.9v-9.9H263v-.5h-24.8V182h16.3c-.2-.2-.4-.3-.7-.5h-25.5V177h-.5v4.5h-25.7V177h-.5v4.5h-25.7v-9.9h-.5v9.9h-25.7V177h-.5v4.5h-25.7V177h-.5v4.5H97.6v-6c-.2.3-.3.5-.5.8v5.3h-5c-.2.2-.4.3-.7.5h15.5v9.9h-24v.5h8.3v9.9h-7.7c0 .2.1.3.1.5h18.3v9.9h-15c.1.2.2.3.2.5H112v9.9H94l.5.5h2.1v2l.5.5v-2.5h25.7v9.9h-15c.3.2.6.3.9.5h24.5v9.9h-.4c.5.2.9.3 1.4.5h9.8v3.7c.2.1.3.1.5.2v-3.9H170v9.9h-13.1c.3.2.6.3.9.5h23.1v5.3c.2-.1.3-.3.5-.4v-4.9h6.9c.3-.2.6-.3.9-.5h-18.6v-9.9h25.7v6.3c.2-.1.3-.2.5-.2v-6.1H212c.4-.2.9-.3 1.4-.5h-1.3v-10h25.3c.3-.2.6-.3.9-.5h-10.5v-9.9h23.7l.5-.5h-8.6v-9.9h15.4c.1-.2.2-.3.2-.5h-25.9v-9.9h29.3zm-14.2-.5h-25.7v-9.9h25.7v9.9zm-57.1 20.8v-9.9h25.7v9.9h-25.7zm-15.6 10.4v-9.9h25.7v9.9h-25.7zm-32-41.1v9.9h-25.7v-9.9h25.7zm42.4-.5V182h25.7v9.9h-25.7zm-15.7 10.4v-9.9h25.7v9.9h-25.7zm-5.3 20.8v-9.9h25.7v9.9h-25.7zm-10.2-10.4v-9.9h25.7v9.9h-25.7zm15-20.3v9.9H144v-9.9h25.7zm15.7-.5h-25.7V182h25.7v9.9zm-26.2 0h-25.7V182h25.7v9.9zm-5 10.9v9.9h-25.7v-9.9h25.7zm10.2 10.4v9.9h-25.7v-9.9h25.7zm10.6 10.4v9.9h-25.7v-9.9H175zm10.4 10.4v9.9h-25.7V234h25.7zm-4.6-21.3v-9.9h25.7v9.9h-25.7zm15.5-10.4v-9.9H222v9.9h-25.7zm41.5-10.4h-25.7V182h25.7v9.9zM107.4 182h25.7v9.9h-25.7V182zm-15.7 10.4h25.7v9.9H91.7v-9.9zm10.6 10.4H128v9.9h-25.7v-9.9zm10.3 10.4h25.7v9.9h-25.7v-9.9zm10.6 10.4h25.7v9.9h-25.7v-9.9zm10.4 10.4h25.7v9.9h-25.7V234zm78 9.9h-25.7V234h25.7v9.9zm15.7-10.4h-25.7v-9.9h25.7v9.9zm15.6-10.4h-25.7v-9.9h25.7v9.9zm-10.2-10.4H207v-9.9h25.7v9.9zM99.5 171.6H111v-.5H99.7c-.1.2-.1.4-.2.5zM126 171.1h16v.5h-16z"/><circle class="st4" cx="173" cy="173" r="160"/><circle class="st4" cx="173" cy="173" r="104"/><path d="M228 112c-1-14-14-18-26-21-11.2-2.8-26.7-4.7-28.8-10.7-.1-.4-.2-.8-.2-1.2V79v.1-.1.2c0 .4-.1.8-.2 1.2-2 5.9-17.6 7.9-28.8 10.7-12 3-25 7-26 21-1 13.9 54.4 25.9 55 26 .6-.2 56-12.2 55-26.1z" style="fill:#24376e;stroke:#000;stroke-linejoin:round;stroke-miterlimit:10"/><path class="st6" d="M115.5 111.5c-13 0-18 7-23 13v.3c1.7 2.6 3.2 5.1 4.3 7.6 4.1-4.3 9.3-7.9 18.7-7.9 13 0 15 9 26 9s12-9 26-9v-13c-14 0-15 9-26 9s-13-9-26-9z"/><path class="st1" d="M115.5 122.5c-9.9 0-15.1 4.1-19.3 8.6 1.7 3.3 2.9 6.4 3.7 9.4 3.6-2.9 8.4-5.1 15.6-5.1 13 0 15 9 26 9s12-9 26-9v-13c-14 0-15 9-26 9s-13-8.9-26-8.9z"/><path class="st6" d="M115.5 133.5c-7.5 0-12.3 2.3-16 5.5 1.3 4.1 2 7.9 2.4 11.2 3.4-2.2 7.7-3.7 13.7-3.7 13 0 15 9 26 9s12-9 26-9v-13c-14 0-15 9-26 9s-13.1-9-26.1-9zM229.5 133.5c-13 0-15 9-26 9s-12-9-26-9v13c14 0 15 9 26 9s13-9 26-9c6.6 0 11.1 1.8 14.6 4.3.3-3.3.9-7.1 2.2-11.2-3.8-3.4-8.8-6.1-16.8-6.1z"/><path class="st1" d="M229.5 122.5c-13 0-15 9-26 9s-12-9-26-9v13c14 0 15 9 26 9s13-9 26-9c7.7 0 12.6 2.5 16.4 5.7.8-3 2-6.1 3.6-9.4-4.3-4.8-9.6-9.3-20-9.3z"/><path class="st6" d="M229.5 111.5c-13 0-15 9-26 9s-12-9-26-9v13c14 0 15 9 26 9s13-9 26-9c9.9 0 15.2 4.1 19.3 8.7 1-2.2 2.2-4.5 3.7-6.8l.7-1.1c-5-6.1-10.7-13.8-23.7-13.8z"/><path class="st6" d="M182 213V103.5l-9-8.5-8.5 8.5V213L149 203v32l16-11v19l8 9 8.5-9v-19l16 11v-32z"/><path style="fill:#fcdb2d" d="m164.2 213.4-14.7-9.5V234l16-11v19.8l7.5 8.5 8-8.5V223l16 11v-30.1l-14.7 9.5h-.8l-16.5.1z"/><circle class="st8" cx="173" cy="293.8" r="5.5"/><circle class="st8" cx="173" cy="320" r="5.5"/><circle class="st8" cx="186.1" cy="306.9" r="5.5"/><circle class="st8" cx="159.9" cy="306.9" r="5.5"/><g><path class="st8" d="M46.4 254.3c-1-1.5-1.8-3-2.4-4.5-.6-1.5-.9-2.9-.9-4.2 0-1.3.4-2.6 1.1-3.8.7-1.2 1.8-2.3 3.3-3.3 1.6-1.1 3.3-1.6 4.8-1.6 1.6 0 3.2.5 4.9 1.5-.8-2.4-.8-4.6 0-6.5.8-2 2.2-3.6 4.2-5 1.6-1.1 3.3-1.7 4.9-1.9 1.6-.2 3.2 0 4.7.6s2.9 1.4 4.2 2.6c1.3 1.1 2.4 2.4 3.4 3.9l10.6 15.7-32.5 21.8-10.3-15.3zm13.8-7.9c-.9-1.3-1.9-2.1-3-2.5-1.2-.4-2.4-.2-3.8.8-.8.5-1.3 1.1-1.6 1.7s-.4 1.2-.4 1.9.2 1.3.5 2 .6 1.3 1.1 2l4.5 6.7 7.6-5.1-4.9-7.5zm13.5-9.7c-.5-.7-1-1.3-1.5-1.9-.6-.5-1.2-1-1.8-1.2-.6-.3-1.3-.4-2.1-.3-.7.1-1.5.4-2.4 1-1.7 1.1-2.5 2.4-2.6 3.8-.1 1.4.4 2.9 1.4 4.5l5.2 7.8 8.9-6-5.1-7.7zM27.2 210.1l33.6-24.8 2.5 8.6-7.6 5.2 4 14.1 9.2.6 2.4 8.3-41.7-3.5-2.4-8.5zm22.9-7.1-12.4 8.7v.1l15.2 1-2.8-9.8zM30.4 193.5l-7.2.2-1-32 7.2-.2.4 11.7 31.9-1 .3 8.6-31.9 1 .3 11.7zM25.5 142.3l14.5 3.8 4-15.3-14.4-3.8 2.2-8.3 37.8 10-2.2 8.3-16.3-4.3-4 15.3 16.3 4.3-2.2 8.3-37.8-10 2.1-8.3zM72.6 75.1c-1-.1-1.9-.1-2.9 0-1 .2-1.9.5-2.8 1-.9.5-1.7 1.2-2.4 2-1.3 1.5-2.1 3-2.4 4.5-.3 1.5-.3 3 .1 4.5s1.1 2.9 2.1 4.2c1 1.3 2.1 2.6 3.4 3.7 1.2 1.1 2.6 2 4 2.7 1.4.7 2.9 1.2 4.4 1.3 1.5.2 3 0 4.4-.5 1.5-.5 2.8-1.5 4.1-3 1.7-2 2.5-4.1 2.2-6.2-.2-2.2-1.3-4.2-3-6.2l5.4-6.3c1.7 1.8 3 3.6 3.9 5.6.9 2 1.4 4 1.5 6 .1 2-.3 4.1-1 6.1-.8 2-1.9 3.9-3.5 5.7-2 2.3-4.1 4-6.5 5.1-2.4 1.1-4.8 1.7-7.2 1.8-2.5.1-4.9-.4-7.3-1.3-2.4-.9-4.7-2.4-6.9-4.2-2.2-1.9-4-4-5.3-6.3-1.3-2.3-2.2-4.7-2.5-7.1-.3-2.5-.1-4.9.6-7.4.8-2.5 2.1-4.9 4.1-7.2 1.4-1.6 3-3 4.7-4 1.7-1 3.5-1.8 5.4-2.1 1.9-.4 3.8-.4 5.8 0s3.9 1.2 5.8 2.5l-5.4 6.3c-.9-.7-1.8-1-2.8-1.2zM74.4 58l8-5.3 16.2 7.8-1-17.9 8-5.3 1.2 28.1 8.3 12.5-7.2 4.8L99.5 70 74.4 58zM140.9 36.5c-.7-.6-1.5-1.1-2.5-1.5-.9-.4-1.9-.6-2.9-.6-1-.1-2 .1-3.1.4-1.9.6-3.3 1.4-4.4 2.5-1.1 1.1-1.8 2.4-2.3 3.8-.4 1.4-.6 3-.5 4.6.1 1.7.4 3.3.9 4.9.5 1.6 1.1 3.1 1.9 4.4.8 1.4 1.8 2.5 3 3.5 1.2.9 2.5 1.6 4 1.9 1.5.3 3.2.2 5-.3 2.5-.8 4.3-2.1 5.2-4.1 1-2 1.2-4.3.8-6.9l8-2.4c.5 2.4.6 4.7.3 6.8-.3 2.2-1 4.1-2 5.9-1 1.8-2.4 3.3-4.1 4.6-1.7 1.3-3.7 2.3-6 3-2.9.9-5.6 1.1-8.2.8-2.6-.3-4.9-1.1-7-2.4-2.1-1.3-3.9-3-5.5-5.1s-2.7-4.5-3.6-7.3c-.8-2.8-1.2-5.5-1.1-8.2.1-2.6.7-5.1 1.7-7.4 1-2.3 2.6-4.2 4.5-5.9 2-1.7 4.4-3 7.3-3.8 2.1-.6 4.1-.9 6.1-.9s3.9.4 5.7 1.1c1.8.7 3.4 1.7 4.9 3.1s2.6 3.1 3.5 5.2l-8 2.4c-.3-.7-.9-1.5-1.6-2.1zM170.3 22.6l-.5 31.9 19.1.3-.1 7.2-27.7-.4.6-39.1 8.6.1zM207.5 26.5l-7.9 38.3-8.4-1.7 7.9-38.3 8.4 1.7zM229 33.2l3.8 30.7h.1L244 40.1l7.3 3.4L234.8 79l-7.8-3.6-3.7-30.6h-.1l-11 23.8-7.3-3.4 16.5-35.5 7.6 3.5zM255.1 97.2c-1.9-.7-3.5-1.8-4.9-3.1-2.2-2.1-3.7-4.3-4.7-6.7s-1.4-4.8-1.4-7.3c.1-2.5.7-4.9 1.8-7.3 1.1-2.4 2.6-4.6 4.6-6.6 2-2.1 4.2-3.7 6.6-4.9 2.4-1.2 4.8-1.9 7.3-2.1s4.9.2 7.4 1.1c2.5.9 4.8 2.4 6.9 4.5 1.4 1.4 2.6 3 3.6 4.7.9 1.7 1.5 3.6 1.8 5.5.3 1.9.2 3.8-.3 5.7-.5 1.9-1.4 3.8-2.8 5.5l-5.9-5.7c1.2-1.9 1.6-3.8 1.3-5.6s-1.2-3.4-2.7-4.9c-1.4-1.3-2.8-2.2-4.3-2.6-1.5-.4-3-.4-4.5-.1-1.5.3-2.9.9-4.3 1.8s-2.7 1.9-3.9 3.2c-1.1 1.2-2.1 2.5-2.9 3.8-.8 1.4-1.3 2.8-1.6 4.3-.3 1.5-.2 3 .3 4.4.4 1.5 1.4 2.9 2.8 4.2 2 2 4.1 3 6.2 3 2.1 0 4.2-.8 6.3-2.6l-6.2-6 4.5-4.6 11.8 11.4-14.7 15.2-3.9-3.8 2.5-3.8c-2.7.3-4.8.1-6.7-.6zM307.7 134c.6-.8 1.1-1.6 1.4-2.5.3-.9.5-1.9.5-2.9s-.2-2-.5-3c-.7-1.8-1.6-3.2-2.7-4.3-1.2-1-2.5-1.7-3.9-2.1-1.5-.4-3-.5-4.7-.3-1.6.2-3.3.6-4.9 1.1-1.5.6-3 1.3-4.3 2.2-1.3.9-2.4 1.9-3.3 3.1-.9 1.2-1.5 2.6-1.7 4.1-.3 1.5-.1 3.2.6 5 .9 2.5 2.3 4.1 4.3 5 2 .9 4.3 1 6.9.4l2.8 7.8c-2.4.6-4.7.8-6.8.6-2.2-.2-4.2-.8-6-1.7-1.8-.9-3.4-2.2-4.8-3.9-1.4-1.6-2.5-3.6-3.3-5.9-1-2.8-1.4-5.5-1.2-8.1.2-2.6.8-5 2-7.1 1.2-2.2 2.8-4.1 4.8-5.7 2-1.7 4.4-3 7.1-3.9 2.8-1 5.5-1.5 8.1-1.5 2.7 0 5.1.4 7.4 1.4s4.4 2.3 6.2 4.2c1.8 1.9 3.2 4.3 4.2 7.1.7 2 1.1 4.1 1.2 6.1.1 2-.2 3.9-.8 5.8s-1.6 3.5-2.9 5c-1.3 1.5-3 2.8-5.1 3.8l-2.8-7.8c.9-.6 1.6-1.2 2.2-2zM323.1 162.5l-31.9 1.4.8 19.1-7.2.3-1.2-27.7 39.1-1.7.4 8.6zM280.5 213.6c-1.8-3.5-2-7.8-.7-12.9 1.3-5.1 3.6-8.8 6.8-11 3.2-2.2 7.4-2.6 12.6-1.3l23.6 6.1-2.2 8.3-23.6-6.1c-1-.3-2.1-.4-3.1-.5-1-.1-2 .1-2.9.4-.9.4-1.7 1-2.5 1.9s-1.3 2.2-1.8 3.9c-.8 3-.6 5.2.4 6.7s3 2.6 5.8 3.3l23.6 6.1-2.2 8.3-23.6-6.1c-5-1.2-8.4-3.6-10.2-7.1zM297.4 257.6c-1 1.6-2.1 2.9-3.2 4s-2.3 1.9-3.5 2.4c-1.2.5-2.5.7-3.9.5-1.4-.2-2.8-.8-4.3-1.8-1.7-1.1-2.8-2.4-3.4-3.8-.6-1.5-.8-3.2-.5-5.1-1.9 1.6-3.9 2.5-6 2.5s-4.2-.6-6.2-1.9c-1.7-1.1-2.9-2.3-3.7-3.8-.8-1.4-1.2-2.9-1.3-4.5-.1-1.6.2-3.2.7-4.8.5-1.6 1.3-3.2 2.3-4.7l10.4-15.9 32.8 21.4-10.2 15.5zm-26.8-18.3c-.5.7-.8 1.4-1.1 2.2-.3.7-.4 1.4-.4 2.1s.2 1.4.5 2c.4.6 1 1.3 1.8 1.8 1.7 1.1 3.2 1.4 4.5.9 1.3-.5 2.5-1.5 3.5-3.1l5.1-7.8-9-5.9-4.9 7.8zm14.1 8.7c-.8 1.3-1.2 2.5-1.1 3.8.1 1.2.8 2.3 2.2 3.2.8.5 1.5.8 2.2.8.7 0 1.3-.1 1.9-.4s1.1-.7 1.6-1.2 1-1.1 1.4-1.8l4.4-6.7-7.7-5-4.9 7.3z"/></g></svg>